<svg id="visual" viewBox="0 0 900 600" width="900" height="600" xmlns="http://www.w3.org/2000/svg" xmlns:xlink="http://www.w3.org/1999/xlink" version="1.1"><g stroke-width="1" stroke-linejoin="bevel"><path d="M488 280L500 321L569 267Z" fill="#2e7fdb" stroke="#2e7fdb"></path><path d="M600 333L584 270L569 267Z" fill="#63a4ff" stroke="#63a4ff"></path><path d="M500 321L561 360L569 267Z" fill="#247bd6" stroke="#247bd6"></path><path d="M488 280L480 352L500 321Z" fill="#579bf6" stroke="#579bf6"></path><path d="M500 321L480 352L561 360Z" fill="#448de8" stroke="#448de8"></path><path d="M561 360L600 333L569 267Z" fill="#247bd6" stroke="#247bd6"></path><path d="M517 152L486 191L569 267Z" fill="#247bd6" stroke="#247bd6"></path><path d="M569 267L486 191L488 280Z" fill="#1976d2" stroke="#1976d2"></path><path d="M488 280L383 277L480 352Z" fill="#2e7fdb" stroke="#2e7fdb"></path><path d="M600 333L643 255L584 270Z" fill="#247bd6" stroke="#247bd6"></path><path d="M615 168L517 152L569 267Z" fill="#448de8" stroke="#448de8"></path><path d="M486 191L418 227L488 280Z" fill="#3d88e4" stroke="#3d88e4"></path><path d="M615 168L569 267L584 270Z" fill="#1976d2" stroke="#1976d2"></path><path d="M486 191L445 177L418 227Z" fill="#448de8" stroke="#448de8"></path><path d="M517 152L445 177L486 191Z" fill="#579bf6" stroke="#579bf6"></path><path d="M708 295L674 299L701 349Z" fill="#448de8" stroke="#448de8"></path><path d="M600 333L674 299L643 255Z" fill="#1976d2" stroke="#1976d2"></path><path d="M719 211L615 168L643 255Z" fill="#1976d2" stroke="#1976d2"></path><path d="M643 255L615 168L584 270Z" fill="#1976d2" stroke="#1976d2"></path><path d="M334 217L383 277L418 227Z" fill="#3d88e4" stroke="#3d88e4"></path><path d="M418 227L383 277L488 280Z" fill="#5d9ffa" stroke="#5d9ffa"></path><path d="M445 177L416 189L418 227Z" fill="#4b92ed" stroke="#4b92ed"></path><path d="M701 349L674 299L600 333Z" fill="#3d88e4" stroke="#3d88e4"></path><path d="M674 299L708 295L643 255Z" fill="#4b92ed" stroke="#4b92ed"></path><path d="M348 342L408 419L480 352Z" fill="#5196f1" stroke="#5196f1"></path><path d="M480 352L543 490L561 360Z" fill="#3d88e4" stroke="#3d88e4"></path><path d="M702 425L600 333L629 487Z" fill="#2e7fdb" stroke="#2e7fdb"></path><path d="M702 425L701 349L600 333Z" fill="#1976d2" stroke="#1976d2"></path><path d="M321 272L348 342L383 277Z" fill="#448de8" stroke="#448de8"></path><path d="M383 277L348 342L480 352Z" fill="#3684df" stroke="#3684df"></path><path d="M348 342L405 437L408 419Z" fill="#4b92ed" stroke="#4b92ed"></path><path d="M408 419L543 490L480 352Z" fill="#5d9ffa" stroke="#5d9ffa"></path><path d="M405 437L543 490L408 419Z" fill="#2e7fdb" stroke="#2e7fdb"></path><path d="M805 277L719 211L708 295Z" fill="#579bf6" stroke="#579bf6"></path><path d="M708 295L719 211L643 255Z" fill="#1976d2" stroke="#1976d2"></path><path d="M417 106L334 217L416 189Z" fill="#448de8" stroke="#448de8"></path><path d="M416 189L334 217L418 227Z" fill="#448de8" stroke="#448de8"></path><path d="M334 217L321 272L383 277Z" fill="#4b92ed" stroke="#4b92ed"></path><path d="M517 152L417 106L445 177Z" fill="#1976d2" stroke="#1976d2"></path><path d="M445 177L417 106L416 189Z" fill="#2e7fdb" stroke="#2e7fdb"></path><path d="M492 66L417 106L517 152Z" fill="#247bd6" stroke="#247bd6"></path><path d="M719 211L680 131L615 168Z" fill="#5d9ffa" stroke="#5d9ffa"></path><path d="M614 54L492 66L517 152Z" fill="#3684df" stroke="#3684df"></path><path d="M629 487L600 333L561 360Z" fill="#2e7fdb" stroke="#2e7fdb"></path><path d="M701 349L764 363L708 295Z" fill="#3d88e4" stroke="#3d88e4"></path><path d="M543 490L629 487L561 360Z" fill="#63a4ff" stroke="#63a4ff"></path><path d="M614 54L517 152L615 168Z" fill="#579bf6" stroke="#579bf6"></path><path d="M719 211L725 169L680 131Z" fill="#3d88e4" stroke="#3d88e4"></path><path d="M805 277L725 169L719 211Z" fill="#3d88e4" stroke="#3d88e4"></path><path d="M769 95L646 84L680 131Z" fill="#1976d2" stroke="#1976d2"></path><path d="M680 131L646 84L615 168Z" fill="#5196f1" stroke="#5196f1"></path><path d="M321 272L294 333L348 342Z" fill="#5d9ffa" stroke="#5d9ffa"></path><path d="M348 342L256 458L405 437Z" fill="#5196f1" stroke="#5196f1"></path><path d="M242 333L294 333L321 272Z" fill="#1976d2" stroke="#1976d2"></path><path d="M702 425L764 363L701 349Z" fill="#247bd6" stroke="#247bd6"></path><path d="M492 66L399 83L417 106Z" fill="#4b92ed" stroke="#4b92ed"></path><path d="M417 106L399 83L334 217Z" fill="#247bd6" stroke="#247bd6"></path><path d="M646 84L614 54L615 168Z" fill="#247bd6" stroke="#247bd6"></path><path d="M565 0L490 41L492 66Z" fill="#63a4ff" stroke="#63a4ff"></path><path d="M492 66L490 41L399 83Z" fill="#3684df" stroke="#3684df"></path><path d="M543 490L582 537L629 487Z" fill="#4b92ed" stroke="#4b92ed"></path><path d="M629 487L730 467L702 425Z" fill="#63a4ff" stroke="#63a4ff"></path><path d="M553 543L582 537L543 490Z" fill="#2e7fdb" stroke="#2e7fdb"></path><path d="M429 538L553 543L543 490Z" fill="#579bf6" stroke="#579bf6"></path><path d="M720 527L730 467L629 487Z" fill="#448de8" stroke="#448de8"></path><path d="M702 425L730 467L764 363Z" fill="#4b92ed" stroke="#4b92ed"></path><path d="M730 467L789 358L764 363Z" fill="#1976d2" stroke="#1976d2"></path><path d="M764 363L805 277L708 295Z" fill="#579bf6" stroke="#579bf6"></path><path d="M389 563L429 538L405 437Z" fill="#5196f1" stroke="#5196f1"></path><path d="M405 437L429 538L543 490Z" fill="#448de8" stroke="#448de8"></path><path d="M789 358L805 277L764 363Z" fill="#5196f1" stroke="#5196f1"></path><path d="M576 0L565 0L614 54Z" fill="#3684df" stroke="#3684df"></path><path d="M614 54L565 0L492 66Z" fill="#63a4ff" stroke="#63a4ff"></path><path d="M490 41L462 0L399 83Z" fill="#247bd6" stroke="#247bd6"></path><path d="M235 204L242 333L321 272Z" fill="#5196f1" stroke="#5196f1"></path><path d="M294 333L256 458L348 342Z" fill="#3d88e4" stroke="#3d88e4"></path><path d="M235 204L321 272L334 217Z" fill="#3d88e4" stroke="#3d88e4"></path><path d="M667 0L614 54L646 84Z" fill="#63a4ff" stroke="#63a4ff"></path><path d="M667 0L576 0L614 54Z" fill="#2e7fdb" stroke="#2e7fdb"></path><path d="M565 0L462 0L490 41Z" fill="#5d9ffa" stroke="#5d9ffa"></path><path d="M702 557L629 487L637 600Z" fill="#579bf6" stroke="#579bf6"></path><path d="M702 557L720 527L629 487Z" fill="#579bf6" stroke="#579bf6"></path><path d="M900 355L900 305L789 358Z" fill="#5196f1" stroke="#5196f1"></path><path d="M270 106L334 217L399 83Z" fill="#3684df" stroke="#3684df"></path><path d="M270 106L262 145L334 217Z" fill="#579bf6" stroke="#579bf6"></path><path d="M846 118L769 95L725 169Z" fill="#3d88e4" stroke="#3d88e4"></path><path d="M725 169L769 95L680 131Z" fill="#247bd6" stroke="#247bd6"></path><path d="M268 531L389 563L405 437Z" fill="#579bf6" stroke="#579bf6"></path><path d="M429 538L521 600L553 543Z" fill="#5d9ffa" stroke="#5d9ffa"></path><path d="M553 543L633 600L582 537Z" fill="#4b92ed" stroke="#4b92ed"></path><path d="M262 145L235 204L334 217Z" fill="#3684df" stroke="#3684df"></path><path d="M182 340L228 348L242 333Z" fill="#3684df" stroke="#3684df"></path><path d="M242 333L228 348L294 333Z" fill="#3d88e4" stroke="#3d88e4"></path><path d="M433 600L521 600L429 538Z" fill="#5d9ffa" stroke="#5d9ffa"></path><path d="M637 600L629 487L582 537Z" fill="#63a4ff" stroke="#63a4ff"></path><path d="M377 0L270 106L399 83Z" fill="#63a4ff" stroke="#63a4ff"></path><path d="M262 145L197 192L235 204Z" fill="#63a4ff" stroke="#63a4ff"></path><path d="M769 95L667 0L646 84Z" fill="#3684df" stroke="#3684df"></path><path d="M242 446L256 458L294 333Z" fill="#4b92ed" stroke="#4b92ed"></path><path d="M389 563L433 600L429 538Z" fill="#5196f1" stroke="#5196f1"></path><path d="M348 600L433 600L389 563Z" fill="#247bd6" stroke="#247bd6"></path><path d="M521 600L633 600L553 543Z" fill="#5196f1" stroke="#5196f1"></path><path d="M633 600L637 600L582 537Z" fill="#448de8" stroke="#448de8"></path><path d="M462 0L377 0L399 83Z" fill="#5d9ffa" stroke="#5d9ffa"></path><path d="M228 348L242 446L294 333Z" fill="#579bf6" stroke="#579bf6"></path><path d="M900 305L866 250L805 277Z" fill="#5196f1" stroke="#5196f1"></path><path d="M805 277L866 250L725 169Z" fill="#2e7fdb" stroke="#2e7fdb"></path><path d="M900 305L805 277L789 358Z" fill="#3684df" stroke="#3684df"></path><path d="M177 167L197 192L262 145Z" fill="#3684df" stroke="#3684df"></path><path d="M235 204L182 340L242 333Z" fill="#5d9ffa" stroke="#5d9ffa"></path><path d="M228 348L182 340L242 446Z" fill="#63a4ff" stroke="#63a4ff"></path><path d="M197 192L182 340L235 204Z" fill="#2e7fdb" stroke="#2e7fdb"></path><path d="M192 508L268 531L256 458Z" fill="#4b92ed" stroke="#4b92ed"></path><path d="M256 458L268 531L405 437Z" fill="#5196f1" stroke="#5196f1"></path><path d="M269 562L268 531L192 508Z" fill="#4b92ed" stroke="#4b92ed"></path><path d="M866 250L846 118L725 169Z" fill="#579bf6" stroke="#579bf6"></path><path d="M769 95L783 0L667 0Z" fill="#247bd6" stroke="#247bd6"></path><path d="M331 600L348 600L389 563Z" fill="#5d9ffa" stroke="#5d9ffa"></path><path d="M846 118L819 64L769 95Z" fill="#3d88e4" stroke="#3d88e4"></path><path d="M702 557L729 600L720 527Z" fill="#2e7fdb" stroke="#2e7fdb"></path><path d="M856 477L789 358L730 467Z" fill="#3684df" stroke="#3684df"></path><path d="M637 600L729 600L702 557Z" fill="#247bd6" stroke="#247bd6"></path><path d="M900 355L789 358L856 477Z" fill="#448de8" stroke="#448de8"></path><path d="M866 250L900 203L846 118Z" fill="#63a4ff" stroke="#63a4ff"></path><path d="M268 531L331 600L389 563Z" fill="#63a4ff" stroke="#63a4ff"></path><path d="M856 477L730 467L825 536Z" fill="#5d9ffa" stroke="#5d9ffa"></path><path d="M270 106L177 167L262 145Z" fill="#5d9ffa" stroke="#5d9ffa"></path><path d="M197 192L148 205L182 340Z" fill="#1976d2" stroke="#1976d2"></path><path d="M203 52L177 167L270 106Z" fill="#5196f1" stroke="#5196f1"></path><path d="M825 536L730 467L720 527Z" fill="#5d9ffa" stroke="#5d9ffa"></path><path d="M192 508L256 458L242 446Z" fill="#2e7fdb" stroke="#2e7fdb"></path><path d="M268 531L269 562L331 600Z" fill="#4b92ed" stroke="#4b92ed"></path><path d="M900 305L900 203L866 250Z" fill="#3d88e4" stroke="#3d88e4"></path><path d="M900 0L797 0L819 64Z" fill="#2e7fdb" stroke="#2e7fdb"></path><path d="M801 600L825 536L720 527Z" fill="#5196f1" stroke="#5196f1"></path><path d="M797 0L783 0L819 64Z" fill="#2e7fdb" stroke="#2e7fdb"></path><path d="M819 64L783 0L769 95Z" fill="#5d9ffa" stroke="#5d9ffa"></path><path d="M177 167L148 205L197 192Z" fill="#2e7fdb" stroke="#2e7fdb"></path><path d="M900 60L819 64L846 118Z" fill="#1976d2" stroke="#1976d2"></path><path d="M377 0L263 0L270 106Z" fill="#579bf6" stroke="#579bf6"></path><path d="M177 167L61 134L148 205Z" fill="#2e7fdb" stroke="#2e7fdb"></path><path d="M900 203L900 134L846 118Z" fill="#579bf6" stroke="#579bf6"></path><path d="M130 435L192 508L242 446Z" fill="#3684df" stroke="#3684df"></path><path d="M130 435L242 446L182 340Z" fill="#4b92ed" stroke="#4b92ed"></path><path d="M263 0L203 52L270 106Z" fill="#579bf6" stroke="#579bf6"></path><path d="M729 600L801 600L720 527Z" fill="#63a4ff" stroke="#63a4ff"></path><path d="M900 502L900 480L856 477Z" fill="#247bd6" stroke="#247bd6"></path><path d="M192 508L261 600L269 562Z" fill="#5d9ffa" stroke="#5d9ffa"></path><path d="M269 562L261 600L331 600Z" fill="#579bf6" stroke="#579bf6"></path><path d="M900 502L856 477L825 536Z" fill="#2e7fdb" stroke="#2e7fdb"></path><path d="M856 477L900 480L900 355Z" fill="#1976d2" stroke="#1976d2"></path><path d="M85 302L115 362L182 340Z" fill="#3d88e4" stroke="#3d88e4"></path><path d="M900 600L900 502L825 536Z" fill="#63a4ff" stroke="#63a4ff"></path><path d="M61 134L106 267L148 205Z" fill="#3684df" stroke="#3684df"></path><path d="M148 205L106 267L182 340Z" fill="#2e7fdb" stroke="#2e7fdb"></path><path d="M115 362L130 435L182 340Z" fill="#63a4ff" stroke="#63a4ff"></path><path d="M192 508L136 600L261 600Z" fill="#579bf6" stroke="#579bf6"></path><path d="M900 134L900 60L846 118Z" fill="#4b92ed" stroke="#4b92ed"></path><path d="M263 0L205 0L203 52Z" fill="#1976d2" stroke="#1976d2"></path><path d="M203 52L114 92L177 167Z" fill="#63a4ff" stroke="#63a4ff"></path><path d="M106 267L85 302L182 340Z" fill="#2e7fdb" stroke="#2e7fdb"></path><path d="M115 362L87 364L130 435Z" fill="#3d88e4" stroke="#3d88e4"></path><path d="M0 307L85 302L0 236Z" fill="#1976d2" stroke="#1976d2"></path><path d="M85 302L87 364L115 362Z" fill="#3d88e4" stroke="#3d88e4"></path><path d="M111 81L114 92L203 52Z" fill="#4b92ed" stroke="#4b92ed"></path><path d="M205 0L169 0L203 52Z" fill="#2e7fdb" stroke="#2e7fdb"></path><path d="M900 60L900 0L819 64Z" fill="#4b92ed" stroke="#4b92ed"></path><path d="M169 0L111 81L203 52Z" fill="#3684df" stroke="#3684df"></path><path d="M114 92L61 134L177 167Z" fill="#4b92ed" stroke="#4b92ed"></path><path d="M73 433L104 487L130 435Z" fill="#5d9ffa" stroke="#5d9ffa"></path><path d="M130 435L104 487L192 508Z" fill="#4b92ed" stroke="#4b92ed"></path><path d="M0 418L73 433L87 364Z" fill="#579bf6" stroke="#579bf6"></path><path d="M87 364L73 433L130 435Z" fill="#247bd6" stroke="#247bd6"></path><path d="M801 600L900 600L825 536Z" fill="#579bf6" stroke="#579bf6"></path><path d="M0 80L61 134L111 81Z" fill="#3684df" stroke="#3684df"></path><path d="M111 81L61 134L114 92Z" fill="#63a4ff" stroke="#63a4ff"></path><path d="M85 302L0 307L87 364Z" fill="#2e7fdb" stroke="#2e7fdb"></path><path d="M36 600L136 600L104 487Z" fill="#2e7fdb" stroke="#2e7fdb"></path><path d="M104 487L136 600L192 508Z" fill="#2e7fdb" stroke="#2e7fdb"></path><path d="M0 236L85 302L106 267Z" fill="#1976d2" stroke="#1976d2"></path><path d="M73 433L0 500L104 487Z" fill="#3684df" stroke="#3684df"></path><path d="M61 134L0 236L106 267Z" fill="#247bd6" stroke="#247bd6"></path><path d="M169 0L81 0L111 81Z" fill="#5196f1" stroke="#5196f1"></path><path d="M61 134L0 162L0 236Z" fill="#448de8" stroke="#448de8"></path><path d="M0 80L0 162L61 134Z" fill="#5d9ffa" stroke="#5d9ffa"></path><path d="M0 307L0 418L87 364Z" fill="#579bf6" stroke="#579bf6"></path><path d="M0 418L0 447L73 433Z" fill="#3684df" stroke="#3684df"></path><path d="M81 0L0 80L111 81Z" fill="#3d88e4" stroke="#3d88e4"></path><path d="M0 447L0 500L73 433Z" fill="#448de8" stroke="#448de8"></path><path d="M0 500L36 600L104 487Z" fill="#2e7fdb" stroke="#2e7fdb"></path><path d="M81 0L0 0L0 80Z" fill="#5d9ffa" stroke="#5d9ffa"></path><path d="M0 500L0 600L36 600Z" fill="#4b92ed" stroke="#4b92ed"></path></g></svg>